<svg xmlns="http://www.w3.org/2000/svg" preserveAspectRatio="xMidYMid" width="153.094" height="63.25" viewBox="0 0 153.094 63.25"><defs><style>.cls-1{fill:#fff;fill-rule:evenodd}</style></defs><path d="M153.077 52.162c-.45 6.771-5.747 11.1-12.885 11.1-6.872 0-10.002-3.162-10.002-6.1 0-1.621 1.247-2.834 2.479-3.194.182-.041.29-.055.386-.055.284 0 .445.129.531.238.21.263.141.567.052.951-.025.108-.054.233-.083.378-.181 1.02-.18 2.514.873 3.771 1.161 1.387 3.36 2.12 6.357 2.12 4.543 0 9.617-3.596 9.894-9.407.203-4.772-2.147-8.118-6.055-8.758.333.84.536 1.767.605 2.767.171 2.586-.486 4.849-1.849 6.372-1.104 1.234-2.609 1.929-4.354 2.008-1.47.073-2.66-.424-3.51-1.395-.944-1.078-1.353-2.692-1.123-4.429.437-3.404 2.659-6.05 5.887-7.093-1.645-1.313-4.024-2.081-6.81-2.184-3.242-.13-6.064.543-8.432 1.97-1.207 7.441-3.689 16.015-6.778 16.015-.638 0-1.234-.395-1.677-1.114-1.042-1.693-1.26-5.305.722-9.239 1.481-2.914 3.18-5.055 5.192-6.54.256-2.357.447-4.804.566-7.297-.987 1.26-2.156 1.97-3.352 2.005-1.004 1.397-2.295 2.164-3.656 2.164-1.181 0-2.27-.485-3.153-1.404-1.317-1.372-1.987-3.498-1.886-5.988.168-4.01 1.809-7.015 4.39-8.037.528-.218 1.049-.064 1.251.34.564-.654 1.265-1.106 2.11-1.258.732-.131 1.418.166 1.986.818 1.185 1.358 1.643 3.974 1.227 6.996-.239 1.643-.612 3.067-1.113 4.254.934-.687 1.84-2.452 2.34-4.697.015-1.496.01-2.898-.017-4.282-.03-1.054.313-1.636.606-1.939.297-.305.691-.48 1.081-.48 1.084 0 1.137.626 1.137 1.732 0 .441.007.835.015 1.313.004.231.008.484.011.77 1.206-2.613 2.748-4.056 4.394-4.056.735 0 1.407.309 1.943.867 1.105 1.153 1.618 3.439 1.485 6.564-.28 5.664-3.499 8.248-6.567 8.248-.577 0-1.117-.003-1.635-.211-.057.679-.126 1.556-.209 2.225 2.472-1.057 5.34-1.058 8.835-.832 4.064.246 7.084 2.401 8.977 4.401h.236c2.775 0 5.261.224 7.003 2.08 1.858 1.979 2.772 4.393 2.575 7.522zm-33.224-5.169c-1.78 3.561-1.704 6.021-1.219 6.806.088.143.183.221.281.233.583-.285 2.042-3.617 3.081-10.252a15.342 15.342 0 0 0-2.143 3.213zm-4.889-17.48c-.193-1.844-.007-3.813.58-5.411-.739 1.069-1.227 2.961-1.321 5.254-.099 2.02.382 3.792 1.286 4.741.257.269.671.592 1.183.592.279 0 .571-.088.858-.255-1.382-.896-2.366-2.73-2.586-4.921zm4.219-5.27c-.054-.057-.132-.125-.203-.125-.849.244-1.915 2.415-1.789 4.938.061 1.412.555 3.195 1.726 3.915.432-.789.888-2.086 1.008-4.131.157-2.448-.274-4.098-.742-4.597zm8.07 10.701c1.829 0 3.071-2.078 3.319-5.558.212-3.239-.2-4.914-.657-5.4-.123-.132-.21-.132-.244-.132-.64 0-2.695 2.878-3.748 9.673l-.064 1.026c.346.266.795.391 1.394.391zm15.62 11.6c-.074-1.258-.414-2.38-1.012-3.342-2.666.507-4.55 2.399-4.95 5.002-.218 1.303-.01 2.412.583 3.125.449.54 1.088.822 1.901.837l.106.002c.768 0 1.472-.316 2.038-.916.964-1.024 1.452-2.74 1.334-4.708zm-31.248-8.428c-.045.22-.271.773-1.482.624-2.446-.264-3.577-3.233-3.452-9.076.03-1.42.152-2.6.25-3.549.091-.882.193-1.881.06-2.079-.727.039-3.546 3.81-4.576 10.633-.049 1.731-1.027 2.208-1.596 2.208-1.038 0-1.222-.442-1.222-1.688 0-1.457.016-1.994.046-3.075.02-.716.047-1.671.081-3.298a97.69 97.69 0 0 1 .521-7.891c-1.378.234-2.875.249-4.374.04-4.264-.568-5.692-3.31-5.606-5.688.104-1.512 1.426-2.373 2.288-2.588.175-.038.29-.053.389-.053a.64.64 0 0 1 .54.254c.206.284.108.582-.039 1.033l-.081.25a3.926 3.926 0 0 0 .063 2.181c.123.273.387.659.833.659.309 0 .668-.184.984-.504.67-.678 1.062-1.827 1.047-3.074-.041-2.731-1.606-4.333-4.409-4.513a8.87 8.87 0 0 0-.539-.017c-2.528 0-5.252 1.275-5.637 4.125-.488 3.726 2.647 5.625 5.965 7.634l.375.227c3.42 2.111 7.043 4.755 6.772 9.45-.306 5.01-4.763 8.787-10.369 8.787-.695 0-1.399-.06-2.091-.178-6.885-1.189-9.051-6.532-8.814-10.746.106-1.516.587-3.639 2.284-5.177.597-.545 2.429-1.143 3.021-1.228.724-.105.91.207.986.382.187.43-.133.859-.507 1.26-1.964 1.923-2.827 3.434-3.093 5.41-.239 1.888.27 3.717 1.432 5.144 1.21 1.485 3.055 2.395 5.196 2.563 4.209.326 8.159-2.197 8.542-5.332.472-3.82-2.456-6.129-5.763-8.348l-.694-.457c-3.46-2.273-7.038-4.624-6.653-8.658.377-4.587 5.078-6.991 9.529-6.991.121 0 .242.002.361.006 2.281.085 4.1.811 5.263 2.1 1.043 1.158 1.532 2.713 1.413 4.498-.119 2.368-1.269 4.465-2.914 5.476a5.4 5.4 0 0 0 .89.235 8.745 8.745 0 0 0 3.616-.077c1.204-8.835 3.717-14.522 6.433-14.522.619 0 1.209.407 1.662 1.146 1.173 1.913 1.408 5.72-.411 9.294-1.198 2.397-2.92 4.134-5.118 5.162a62.813 62.813 0 0 0-.461 6.927c1.437-3.125 3.501-5.732 5.643-5.732.511 0 .929.172 1.243.51.892.965.773 3.109.485 6.816-.534 6.512.196 8.185.902 8.442.861.382.819.909.786 1.063zm-5.814-23.384c1.457-2.914 1.273-5.641.816-6.674-.134-.304-.258-.398-.292-.408-.545.246-2.014 3.81-2.989 10.085 1.009-.738 1.835-1.744 2.465-3.003zM76.765 29.025c-2.93 21.904-5.728 24.438-7.579 24.438-.624 0-1.176-.315-1.596-.911-1.087-1.544-1.112-4.671-.062-7.606a29.284 29.284 0 0 1 5.631-9.628l.029-.278c-.869 1.337-1.832 2.049-2.814 2.049-.987 0-2.657-.494-3.58-3.538-1.501 2.617-3.475 4.09-5.54 4.09-2.077 0-3.905-1.294-4.914-3.39-.8 1.927-1.911 3.772-3.229 3.772-1.082 0-1.913-1.273-2.297-3.415-.951 1.591-2.079 2.503-3.258 2.606a2.049 2.049 0 0 1-.17.007c-1.236 0-2.666-1.068-3.394-3.127-1.215 2.203-2.594 3.441-3.876 3.441-1.685 0-3.319-2.004-4.281-5.128-1.074 2.607-2.732 5.107-4.574 5.107-.703 0-1.424-.37-2.085-1.07-1.521-1.612-3.174-5.625-2.826-11.634.517-8.31 3.554-19.899 7.328-19.899.286 0 .701.094 1.057.542 1.293 1.627.768 7.124-.018 10.507-1.055 4.308-3.351 9.392-5.112 12.273.283 4.745 1.406 6.881 2.123 6.881.766 0 2.431-2.667 3.315-6.853a27.293 27.293 0 0 1-.058-4.037c.542-8.715 3.722-20.868 7.67-20.868.295 0 .723.096 1.09.559 1.352 1.702.8 7.462-.024 11.009-1.107 4.521-3.519 9.863-5.368 12.886.297 5.003 1.491 7.255 2.253 7.255.576 0 1.923-1.64 2.982-5.159.655-6.058 4.193-8.197 7.02-8.197 1.535 0 2.402.578 2.86 1.062.583.618.874 1.469.821 2.395-.131 1.005-1.65 1.891-2.401 2.032-.541.115-.805-.103-.896-.234-.222-.319-.095-.662.116-1.229l.05-.135c.278-.898.306-1.525.076-1.838-.162-.221-.501-.332-1.007-.332-1.654 0-3.04 2.295-3.449 5.711-.314 2.543.262 4.513.929 5.267.158.178.319.281.441.281.813 0 1.925-1.622 2.477-4.722l.025-.315c.02-.275.04-.531.102-.873.188-.975 1.313-1.416 2.279-1.416.421 0 .703.091.865.276l.149.173-.014.278c-.985 5.169-.671 7.093-.433 7.49.287-.259 1.015-1.47 1.901-4.939a12.765 12.765 0 0 1-.004-.94c.252-5.043 2.891-8.84 6.141-8.84.911 0 1.66.309 2.228.921 1.12 1.209 1.07 3.128 1.028 3.688-.132.998-1.654 1.799-2.4 1.938-.612.135-.815-.086-.904-.214-.204-.296-.088-.605.088-1.072l.085-.226c.38-1.071.556-2.458.154-3.029-.087-.123-.25-.286-.661-.286-1.27 0-2.391 2.902-2.553 6.606-.074 2.179.481 4.101 1.485 5.14.498.514 1.088.787 1.705.787 2.396 0 3.725-3.081 4.317-4.985-.144-1.94-.081-4.236.19-6.827.13-1.133 1.578-1.553 2.46-1.553.378 0 .624.081.775.255l.15.173-.017.272c-.842 6.681-.727 10.687.341 11.899a.924.924 0 0 0 .733.341c.822 0 2.371-2.896 3.025-8.13.092-1.387.22-2.688.342-3.452.126-1.096 1.556-1.512 2.427-1.512.407 0 .669.092.823.288l.15.192-.045.296c.005 0-.337 3.472-.797 6.654zm-6.982 16.052c-.983 2.644-.834 4.302-.368 4.972.121.175.24.243.31.25.564-.226 1.79-3.454 2.905-11.133a35.685 35.685 0 0 0-2.847 5.911zM32.43 16.066c.981-3.775.93-6.969.64-7.848-1.034 1.391-3.09 9.681-3.449 15.846 1.148-2.629 2.254-5.748 2.809-7.998zm8.938-1.018c1.052-4.048.977-7.435.656-8.299-1.088 1.359-3.303 10.256-3.662 16.826 1.226-2.789 2.415-6.129 3.006-8.527zm-31.23 2.625a25.258 25.258 0 0 0-1.078 4.794c-.579 4.72.249 8.865 2.215 11.088 1.081 1.222 2.454 1.841 4.082 1.842.092 0 .184-.002.277-.007 4.149-.203 5.55-4.45 6.016-6.964l.132-2.548c.078-2.123 1.386-2.288 1.785-2.288.317 0 1.221.134 1.221.728-.456 6.587-1.119 11.717-2.025 15.683 4.964.346 11.007 1.305 16.306 2.207 4.403.743 9.414 1.5 13.18 1.5 3.223 0 5.159-.546 5.755-1.622.12-.204.192-.358.245-.472.103-.224.26-.563.662-.563.246 0 .433.14.671.317.846.586 1.426 1.6 1.464 2.573.023.594-.137 1.457-1.029 2.181-.893.748-2.355 1.113-4.466 1.113-3.669 0-8.714-1.074-14.055-2.21-.981-.209-1.964-.419-2.939-.621-6.472-1.322-11.961-2.097-16.325-2.306-1.581 5.356-3.827 8.125-7.048 8.701a5.935 5.935 0 0 1-.968.079c-2.101 0-4.15-1.085-5.218-2.764-.863-1.356-.962-2.906-.281-4.365 1.183-2.629 4.498-3.856 10.428-3.856.348 0 .702.004 1.064.011.327-1.412.598-2.993.823-4.788-1.558 1.617-3.541 2.518-5.819 2.625l-.301.005c-2.537 0-4.752-.975-6.409-2.821-2.418-2.695-3.495-7.091-2.956-12.06.217-1.996.628-3.845 1.224-5.505-2.488-.592-4.532-1.868-5.665-3.549-1.004-1.49-1.313-3.247-.918-5.222C1.501 2.026 9.924-.012 12.844-.012c.518 0 .895.056 1.152.172.377.179 1.357.645 1.194 1.366-.093.413-.527.659-1.163.659-.312 0-.642-.061-.929-.17-.044-.017-.214-.07-.626-.07-2.142 0-8.658 1.602-9.576 6.507-.635 3.349 1.87 5.823 4.781 6.646 2.573-5.46 7.164-9.343 11.788-9.939 2.233-.3 4.051.295 4.95 1.635.716 1.068.787 2.507.195 3.949-1.536 3.771-7.849 6.778-14.472 6.93zm2.164 26.411c-.634 1.045-.719 2.144-.231 3.01.457.812 1.328 1.296 2.33 1.296.361 0 .728-.063 1.092-.189 1.72-.618 3.121-2.673 4.162-6.115-5.088.084-6.812 1.121-7.353 1.998zm8.855-35.955c-.331-.51-.997-.617-1.497-.617-.256 0-.537.027-.836.081-2.767.527-5.836 3.616-7.791 7.785 3.954-.313 8.695-2.295 10.004-5.039.4-.897.446-1.707.12-2.21z" class="cls-1"/></svg>