<svg xmlns="http://www.w3.org/2000/svg" preserveAspectRatio="xMidYMid" width="107.622" height="36.69" viewBox="0 0 107.622 36.69"><defs><style>.cls-1{fill:#fff;fill-rule:evenodd}</style></defs><path d="M103.727 29.189c-.899 2.16-2.074 2.886-3.336 2.886a4.67 4.67 0 0 1-1.089-.138v-1.572c.277.086.571.121.847.121.899 0 1.573-.64 2.057-1.936l.173-.415-3.941-8.365h1.971l2.799 6.256 2.472-6.256h1.935l-3.888 9.419zm-8.054-6.256c0-1.072-.64-1.745-1.642-1.745-.916 0-1.625.604-2.057 1.123.018.19.035.38.035.57v5.185H90.16v-5.133c0-1.072-.64-1.745-1.642-1.745-1.002 0-1.763.725-2.195 1.278v5.6h-1.849v-8.295h1.642v1.036c.449-.501 1.417-1.261 2.765-1.261 1.244 0 2.108.518 2.592 1.33.726-.725 1.694-1.33 2.904-1.33 2.194 0 3.145 1.624 3.145 3.335v5.185h-1.849v-5.133zm-19.322 1.676c.208 1.487 1.659 2.109 3.18 2.109a6.07 6.07 0 0 0 2.627-.588v1.591c-.76.363-1.815.57-2.973.57-2.54 0-4.701-1.452-4.701-4.373 0-3.007 2.282-4.372 4.2-4.372 3.301 0 4.442 2.661 3.906 5.063h-6.239zm2.42-3.525c-1.245 0-2.368.743-2.437 2.143h4.597c.104-.726-.346-2.143-2.16-2.143zm-7.743 5.669c-.64.812-1.625 1.538-3.18 1.538-2.506 0-4.113-1.988-4.113-4.373 0-2.385 1.607-4.372 4.113-4.372 1.452 0 2.419.639 2.99 1.296v-4.874h1.849v12.098h-1.659v-1.313zm-.208-3.855c-.397-.898-1.347-1.728-2.644-1.728-1.486 0-2.575 1.124-2.575 2.748s1.089 2.748 2.575 2.748c1.297 0 2.247-.829 2.644-1.746v-2.022zm.018-21.455h1.849v12.098h-1.849V1.443zm-4.555 6.965c0-1.071-.639-1.745-1.642-1.745-.915 0-1.624.605-2.056 1.123.017.19.034.38.034.57v5.185H60.77V8.408c0-1.071-.639-1.745-1.642-1.745-1.002 0-1.763.725-2.195 1.279v5.599h-1.849V5.246h1.642v1.036c.449-.501 1.417-1.261 2.765-1.261 1.245 0 2.109.518 2.592 1.331.726-.726 1.694-1.331 2.904-1.331 2.195 0 3.146 1.624 3.146 3.335v5.185h-1.85V8.408zm-8.494 12.745a7.398 7.398 0 0 0-2.99.639v-1.693c.657-.225 1.85-.553 3.18-.553 2.351 0 3.837 1.123 3.837 3.629v2.973c0 .466.277.605.605.605.19 0 .38-.053.553-.104v1.33c-.346.139-.76.208-1.175.208-.761 0-1.365-.294-1.659-.968-.813.657-1.832 1.072-3.128 1.072-1.504 0-2.904-.83-2.904-2.541 0-2.125 1.971-2.782 3.699-2.782.708 0 1.503.103 2.16.242v-.294c0-1.037-.76-1.763-2.178-1.763zm.381 3.111c-1.055 0-2.161.328-2.161 1.365 0 .812.726 1.227 1.556 1.227.881 0 1.745-.329 2.402-.985v-1.4c-.501-.103-1.21-.207-1.797-.207zM47.878 11.018V6.87h-1.486V5.246h1.486V2.739l1.832-.449v2.956h3.007V6.87H49.71v3.802c0 1.089.501 1.452 1.573 1.452.605 0 1.158-.121 1.676-.328v1.59c-.622.224-1.417.362-2.229.362-1.608 0-2.852-.794-2.852-2.73zm2.428 8.528c.933 0 1.832.207 2.558.639v1.694c-.605-.432-1.452-.691-2.299-.691-1.469 0-2.955.777-2.955 2.73 0 1.884 1.434 2.731 2.921 2.731.881 0 1.763-.259 2.419-.639v1.71c-.795.38-1.693.571-2.748.571-2.212 0-4.476-1.348-4.476-4.303 0-3.094 2.368-4.442 4.58-4.442zm-8.175 7.673c-.812.657-1.831 1.072-3.128 1.072-1.503 0-2.903-.83-2.903-2.541 0-2.125 1.97-2.782 3.698-2.782.709 0 1.504.103 2.161.242v-.294c0-1.037-.761-1.763-2.178-1.763a7.394 7.394 0 0 0-2.99.639v-1.693c.657-.225 1.849-.553 3.18-.553 2.351 0 3.837 1.123 3.837 3.629v2.973c0 .466.276.605.605.605.19 0 .38-.053.553-.104v1.33a3.217 3.217 0 0 1-1.175.208c-.761 0-1.366-.294-1.66-.968zm-.172-2.748c-.502-.103-1.21-.207-1.798-.207-1.054 0-2.16.328-2.16 1.365 0 .812.726 1.227 1.555 1.227.882 0 1.746-.329 2.403-.985v-1.4zm.838-15.821c0-1.348-.83-1.987-1.936-1.987-1.054 0-1.849.708-2.316 1.382v5.496h-1.849V1.443h1.849v4.718a3.778 3.778 0 0 1 2.679-1.14c2.091 0 3.422 1.417 3.422 3.387v5.133h-1.849V8.65zM-.001 28.067V1.519L14.483.001l.152.016 14.332 1.502v26.548l-14.484 8.618-14.484-8.618zM27.072 3.226L14.483 1.905 1.894 3.226v9.958l12.518-7.453V5.73l.002.001.001-.001v.001l12.657 7.462V3.226zM14.446 18.237l3.19 1.879.024-.014.997-.667-4.224-2.511.013-1.313 5.351 3.183.92-.542.14-.083.057-.034-6.481-3.854.013-1.312 7.582 4.51 1.59-.936 3.444-2.03-12.65-7.372V7.14L1.921 14.648l12.473 7.414 2.133-1.28-2.094-1.233.013-1.312zm12.626-2.312l-3.883 2.319v4.288l.01-.006v1.319l-8.716 5.215-8.633-5.189.012-1.312 8.631 5.134-.021-1.388-8.634-5.189.013-1.313 8.599 5.118-.021-1.352-12.535-7.461v10.881l12.589 7.491 12.589-7.491V15.925z" class="cls-1"/></svg>